<svg width="33" height="32" viewBox="0 0 33 32" fill="none" xmlns="http://www.w3.org/2000/svg">
<path d="M12.4534 12C12.7668 11.1089 13.3856 10.3575 14.2 9.87883C15.0144 9.4002 15.9719 9.22524 16.9029 9.38494C17.834 9.54464 18.6785 10.0287 19.2868 10.7514C19.8952 11.474 20.2281 12.3887 20.2267 13.3333C20.2267 16 16.2267 17.3333 16.2267 17.3333M16.3334 22.6667H16.3467M29.6667 16C29.6667 23.3638 23.6972 29.3333 16.3334 29.3333C8.96958 29.3333 3.00004 23.3638 3.00004 16C3.00004 8.63619 8.96958 2.66666 16.3334 2.66666C23.6972 2.66666 29.6667 8.63619 29.6667 16Z" stroke="#3B009A" stroke-width="3" stroke-linecap="round" stroke-linejoin="round"/>
</svg>
