<svg width="33" height="32" viewBox="0 0 33 32" fill="none" xmlns="http://www.w3.org/2000/svg">
<path d="M12.7866 12C13.1001 11.1089 13.7188 10.3575 14.5332 9.87883C15.3476 9.4002 16.3052 9.22524 17.2362 9.38494C18.1672 9.54464 19.0117 10.0287 19.6201 10.7514C20.2284 11.474 20.5614 12.3887 20.56 13.3333C20.56 16 16.56 17.3333 16.56 17.3333M16.6666 22.6667H16.68M30 16C30 23.3638 24.0304 29.3333 16.6666 29.3333C9.30283 29.3333 3.33329 23.3638 3.33329 16C3.33329 8.63619 9.30283 2.66666 16.6666 2.66666C24.0304 2.66666 30 8.63619 30 16Z" stroke="#3B009A" stroke-width="3" stroke-linecap="round" stroke-linejoin="round"/>
</svg>
