<?xml version="1.0" encoding="UTF-8"?>
<svg id="Layer_2" xmlns="http://www.w3.org/2000/svg" viewBox="0 0 249.49 249.49">
  <defs>
    <style>
      .cls-1 {
        fill: #fff;
      }

      .cls-2 {
        fill: #3b009a;
      }

      .cls-3 {
        fill: #6f6;
      }
    </style>
  </defs>
  <g id="Ebene_1">
    <circle class="cls-1" cx="124.75" cy="124.75" r="124.73"/>
    <g>
      <g>
        <path class="cls-2" d="M9.2,144.6C-1.74,80.9,41.02,20.39,104.72,9.44c63.7-10.95,124.21,31.82,135.16,95.52"/>
        <path class="cls-3" d="M239.88,104.96c10.95,63.7-31.82,124.21-95.52,135.16-63.7,10.95-124.21-31.82-135.16-95.52"/>
      </g>
      <g>
        <path class="cls-1" d="M15.94,105.59l9.73-1.67,4.15,24.13,22-3.78,1.36,7.93-31.73,5.45-5.51-32.06Z"/>
        <path class="cls-1" d="M66.08,96.97l13.04-2.24,23,29.05-10.64,1.83-4.15-5.18-20.61,3.54-2.08,6.25-11.02,1.89,12.46-35.15ZM82.78,114.34l-9.1-11.6-4.61,13.95,13.71-2.35Z"/>
        <path class="cls-1" d="M130.54,97.08c-.43-2.5-1.7-3.27-4.64-2.87l-2.44.42-3.46.54-3.54.66q-4.65.8-5.75,1.29c-1.7.74-2.31,1.78-2.2,3.84,0,.89.41,3.84.77,5.91.74,4.33,1.47,5.98,2.97,6.67,1.23.53,2.62.59,5.17.2q1.06-.13,7.05-1.16c6.38-1.05,7.52-1.59,7.97-3.84.03-.4,0-.84-.16-1.8l-.06-.34-.07-.43-12.32,2.12-1.02-5.96,21.81-3.75.76,4.42c.91,5.29,1.04,7.19.71,9.03-.59,3.17-2.6,5-6.55,6.12-.99.27-3.91.82-13.35,2.44-7.33,1.26-10.19,1.6-12.27,1.51-3.63-.17-5.95-1.3-7.5-3.76-1.33-2-1.96-4.22-2.98-10.18-1.18-6.87-1.27-9.68-.41-12.15,1.01-2.75,3.04-4.43,7.06-5.72,2.16-.67,6.01-1.48,12.1-2.52,8.72-1.5,11.53-1.83,13.62-1.7,5.15.4,7.16,2.63,8.27,9.37l-9.54,1.64Z"/>
        <path class="cls-1" d="M177.75,77.79l1.25,7.26-25.83,4.44.95,5.53,24.35-4.18,1.09,6.34-24.35,4.18.97,5.67,26.17-4.5,1.25,7.26-35.75,6.14-5.51-32.06,35.42-6.09Z"/>
        <path class="cls-1" d="M181.69,77.11l27.56-4.74c5.66-.97,8.23-.92,10.32.31,2.12,1.17,3.46,3.76,4.2,8.09,1.02,5.96,0,8.56-3.92,10.18,4.09-.01,5.58,1.46,6.32,6.34l.87,5.05-9.87,1.7-.69-3.99c-.64-3.45-1.73-4.01-6.07-3.16l-14.91,2.56,1.39,8.08-9.68,1.66-5.51-32.06ZM209.34,88.98c4.7-.81,5.51-1.54,4.96-4.71-.36-2.07-.7-2.9-1.44-3.47-.85-.65-1.69-.65-4.61-.15l-15.53,2.67,1.42,8.27,15.19-2.61Z"/>
      </g>
      <g>
        <path class="cls-2" d="M13.8,143.47l28.85-4.96c3.69-.63,5.76-.64,7.58-.12,2.82.9,4.25,2.88,4.95,6.97.72,4.18-.35,6.59-3.27,7.69,4.45.08,6.21,1.7,7.01,6.37.69,4.04-.02,6.78-2.33,8.56-1.35,1.02-3.41,1.72-7.09,2.36l-30.19,5.19-5.51-32.06ZM41.83,151.81c1.87-.32,2.52-.53,3.1-.93.69-.57,1.02-1.51.83-2.62-.22-1.3-1.01-2.15-2.13-2.36-.66-.09-1.14-.05-3.01.27l-16.1,2.77.97,5.67,16.34-2.81ZM44.97,163.79c1.96-.34,2.34-.45,2.93-.75.9-.5,1.31-1.56,1.08-2.91-.24-1.39-.98-2.26-2.1-2.46-.61-.09-1-.08-3.16.29l-17.16,2.95,1.01,5.86,17.4-2.99Z"/>
        <path class="cls-2" d="M68.73,134.03l2.39,13.94.33,1.92c.6,3.51.62,3.6.91,4.45,1.1,3.52,2.8,3.97,10.09,2.72,7.29-1.25,9.26-1.79,10.31-2.91.84-.89,1.08-2.36.7-4.82q-.08-.73-.69-4.29l-2.53-14.71,9.73-1.67,2.89,16.82c1.46,7.91,1.19,10.38-1.2,13.42-2,2.17-4.74,3.44-8.9,4.2-1.48.3-2.34.45-4.26.78l-3.63.67c-9.02,1.5-10.81,1.71-13.26,1.49-6.11-.78-8.16-3.55-9.65-13.09l-2.96-17.25,9.73-1.67Z"/>
        <path class="cls-2" d="M104.44,127.89l27.61-4.74c6.76-1.16,10.05-.94,12.64.9,2.07,1.43,3.14,3.32,4.17,7.35.35,1.47.83,3.67,1.09,5.21.5,2.88.87,6.23.9,8.11.13,3.94-2.04,7.38-5.42,8.65-1.75.7-3.18,1.04-6.58,1.62l-28.9,4.97-5.51-32.06ZM134.66,147.84c2.64-.45,2.83-.49,3.91-1.07,2.22-1.12,2.56-2.91,1.61-8.44-1.16-6.73-2.55-7.93-8.15-6.96l-16.49,2.83,2.82,16.44,16.3-2.8Z"/>
        <path class="cls-2" d="M151.32,119.84l27.61-4.74c6.76-1.16,10.05-.94,12.64.9,2.07,1.43,3.14,3.32,4.17,7.35.35,1.47.83,3.67,1.09,5.21.5,2.88.87,6.23.9,8.11.13,3.94-2.04,7.38-5.42,8.65-1.75.7-3.18,1.04-6.58,1.62l-28.9,4.97-5.51-32.06ZM181.54,139.78c2.64-.45,2.83-.49,3.91-1.07,2.22-1.12,2.56-2.91,1.61-8.44-1.16-6.73-2.55-7.93-8.15-6.96l-16.49,2.83,2.82,16.44,16.3-2.8Z"/>
        <path class="cls-2" d="M215.36,130.41l-21.86-17.82,12.41-2.13,13.06,11.41,8.41-15.1,12.17-2.09-14.42,24.05,1.91,11.1-9.78,1.68-1.91-11.1Z"/>
      </g>
    </g>
  </g>
</svg>